<svg width="295" height="45" viewBox="0 0 295 45" fill="none" xmlns="http://www.w3.org/2000/svg">
<path d="M64.1633 2.5V10.5H9.07686C8.4934 10.5 8.02041 10.9713 8.02041 11.5526V33.4474C8.02041 34.0287 8.4934 34.5 9.07686 34.5H64.1633V42.5H3.54933C2.98856 42.5 2.45079 42.2779 2.05448 41.8826L0.618053 40.4498C0.222297 40.0551 0 39.5199 0 38.962V6.03803C0 5.48007 0.222297 4.94493 0.618053 4.55019L2.05448 3.11742C2.45079 2.72211 2.98856 2.5 3.54933 2.5H64.1633Z" fill="url(#paint0_linear_671_137)"/>
<path fill-rule="evenodd" clip-rule="evenodd" d="M69.5102 42.5V6.03803C69.5102 5.48007 69.7325 4.94494 70.1283 4.55019L71.5647 3.11742C71.961 2.72211 72.4988 2.5 73.0595 2.5H127.451C128.011 2.5 128.549 2.72156 128.945 3.11687L130.382 4.55026C130.778 4.94501 131 5.48007 131 6.03803V42.5H122.98V32.886C122.98 32.3046 122.507 31.8333 121.923 31.8333H78.5871C78.0036 31.8333 77.5306 32.3046 77.5306 32.886V42.5H69.5102ZM78.5306 23.8333C77.9783 23.8333 77.5306 23.3856 77.5306 22.8333V11.5C77.5306 10.9477 77.9783 10.5 78.5306 10.5H121.98C122.532 10.5 122.98 10.9477 122.98 11.5V22.8333C122.98 23.3856 122.532 23.8333 121.98 23.8333H78.5306Z" fill="url(#paint1_linear_671_137)"/>
<path d="M160.4 23.71C156.089 24.0967 152.512 24.29 149.67 24.29C147.775 24.29 146.383 23.8453 145.494 22.956C144.605 22.0667 144.16 20.6747 144.16 18.78V9.5C144.16 7.47 144.614 6.00067 145.523 5.092C146.451 4.164 147.93 3.7 149.96 3.7H160.4V7.76H151.12C149.96 7.76 149.38 8.34 149.38 9.5V18.78C149.38 19.2247 149.506 19.5823 149.757 19.853C150.028 20.1043 150.366 20.23 150.772 20.23C151.178 20.23 151.623 20.23 152.106 20.23C152.589 20.2107 153.092 20.1913 153.614 20.172C154.136 20.1527 154.658 20.1333 155.18 20.114C155.721 20.0947 156.408 20.056 157.239 19.998C158.09 19.94 159.143 19.8723 160.4 19.795V23.71ZM180.993 24H175.773V11.53L168.813 24H163.303V3.7H168.523V16.17L175.483 3.7H180.993V24ZM200.727 23.71C196.416 24.0967 192.839 24.29 189.997 24.29C188.102 24.29 186.71 23.8453 185.821 22.956C184.932 22.0667 184.487 20.6747 184.487 18.78V9.5C184.487 7.47 184.941 6.00067 185.85 5.092C186.778 4.164 188.257 3.7 190.287 3.7H200.727V7.76H191.447C190.287 7.76 189.707 8.34 189.707 9.5V18.78C189.707 19.2247 189.833 19.5823 190.084 19.853C190.355 20.1043 190.693 20.23 191.099 20.23C191.505 20.23 191.95 20.23 192.433 20.23C192.916 20.2107 193.419 20.1913 193.941 20.172C194.463 20.1527 194.985 20.1333 195.507 20.114C196.048 20.0947 196.735 20.056 197.566 19.998C198.417 19.94 199.47 19.8723 200.727 19.795V23.71ZM213.49 24H208.27V7.76H202.18V3.7H219.58V7.76H213.49V24ZM238.289 24H222.194V3.7H238.289V7.76H227.414V11.675H235.969V15.735H227.414V19.94H238.289V24ZM258.582 12.69L254.522 19.94H250.462L246.402 12.69V24H241.182V3.7H246.692L252.492 14.43L258.292 3.7H263.802V24H258.582V12.69ZM273.093 10.66H279.763C281.793 10.66 283.263 11.124 284.171 12.052C285.099 12.9607 285.563 14.43 285.563 16.46V18.2C285.563 20.23 285.099 21.709 284.171 22.637C283.263 23.5457 281.793 24 279.763 24H267.873V3.7H273.093V10.66ZM293.103 24H287.883V3.7H293.103V24ZM280.343 16.46C280.343 15.3 279.763 14.72 278.603 14.72H273.093V19.94H278.603C279.763 19.94 280.343 19.36 280.343 18.2V16.46Z" fill="#818181"/>
<path d="M145.96 42H142.84L147.08 30.8H150.28L154.52 42H151.4L150.68 40H146.68L145.96 42ZM147.4 37.92H149.96L148.68 34.16L147.4 37.92ZM155.639 30.8H162.039C163.085 30.8 163.853 31.04 164.343 31.52C164.834 31.9893 165.079 32.7093 165.079 33.68C165.079 34.32 164.941 34.8427 164.663 35.248C164.386 35.6427 164.045 35.92 163.639 36.08C164.503 36.3147 165.09 36.8907 165.399 37.808C165.506 38.1387 165.559 38.5227 165.559 38.96C165.559 40.0053 165.314 40.7733 164.823 41.264C164.333 41.7547 163.565 42 162.519 42H155.639V30.8ZM162.679 38.48C162.679 37.84 162.359 37.52 161.719 37.52H158.519V39.76H161.719C162.359 39.76 162.679 39.44 162.679 38.8V38.48ZM162.199 34C162.199 33.36 161.879 33.04 161.239 33.04H158.519V35.28H161.239C161.879 35.28 162.199 34.96 162.199 34.32V34ZM172.446 42H169.566V33.04H166.206V30.8H175.806V33.04H172.446V42ZM184.448 33.84C184.448 33.2 184.128 32.88 183.488 32.88H180.768C180.128 32.88 179.808 33.2 179.808 33.84V38.96C179.808 39.6 180.128 39.92 180.768 39.92H183.488C184.128 39.92 184.448 39.6 184.448 38.96V33.84ZM187.328 38.96C187.328 40.08 187.072 40.896 186.56 41.408C186.059 41.9093 185.248 42.16 184.128 42.16H180.128C179.008 42.16 178.192 41.9093 177.68 41.408C177.179 40.896 176.928 40.08 176.928 38.96V33.84C176.928 32.72 177.179 31.9093 177.68 31.408C178.192 30.896 179.008 30.64 180.128 30.64H184.128C185.248 30.64 186.059 30.896 186.56 31.408C187.072 31.9093 187.328 32.72 187.328 33.84V38.96ZM198.856 35.76L196.616 39.76H194.376L192.136 35.76V42H189.256V30.8H192.296L195.496 36.72L198.696 30.8H201.736V42H198.856V35.76ZM205.982 42H202.862L207.102 30.8H210.302L214.542 42H211.422L210.702 40H206.702L205.982 42ZM207.422 37.92H209.982L208.702 34.16L207.422 37.92ZM219.976 42H217.096V33.04H213.736V30.8H223.336V33.04H219.976V42ZM234.538 42H231.658V35.12L227.818 42H224.778V30.8H227.658V37.68L231.498 30.8H234.538V42ZM236.146 39.68C238.866 39.84 240.786 39.92 241.906 39.92C242.151 39.92 242.343 39.8507 242.482 39.712C242.631 39.5627 242.706 39.3653 242.706 39.12V38.48C242.706 37.84 242.386 37.52 241.746 37.52H237.906V35.28H241.426C242.066 35.28 242.386 34.96 242.386 34.32V34C242.386 33.36 242.066 33.04 241.426 33.04H236.306V30.8H242.226C243.271 30.8 244.039 31.04 244.53 31.52C245.02 31.9893 245.266 32.7093 245.266 33.68C245.266 34.32 245.116 34.8427 244.818 35.248C244.53 35.6427 244.146 35.92 243.666 36.08C244.53 36.3147 245.116 36.8907 245.426 37.808C245.532 38.1387 245.586 38.5227 245.586 38.96V39.12C245.586 40.1653 245.34 40.9333 244.85 41.424C244.359 41.9147 243.591 42.16 242.546 42.16C240.764 42.16 238.631 42.0533 236.146 41.84V39.68ZM249.34 42H246.22L250.46 30.8H253.66L257.9 42H254.78L254.06 40H250.06L249.34 42ZM250.78 37.92H253.34L252.06 34.16L250.78 37.92ZM259.019 42V30.8H261.899V39.76H265.899V30.8H268.779V39.76H269.979V44.08H267.259L267.099 42H259.019ZM281.334 42H278.454V35.12L274.614 42H271.574V30.8H274.454V37.68L278.294 30.8H281.334V42ZM293.341 42H290.461V35.12L286.621 42H283.581V30.8H286.461V37.68L290.301 30.8H293.341V42Z" fill="#818181"/>
<defs>
<linearGradient id="paint0_linear_671_137" x1="0.528225" y1="41.9737" x2="130.928" y2="4.35443" gradientUnits="userSpaceOnUse">
<stop stop-color="#3873A9"/>
<stop offset="1" stop-color="#224565"/>
</linearGradient>
<linearGradient id="paint1_linear_671_137" x1="0.528225" y1="41.9737" x2="130.928" y2="4.35443" gradientUnits="userSpaceOnUse">
<stop stop-color="#3873A9"/>
<stop offset="1" stop-color="#224565"/>
</linearGradient>
</defs>
</svg>
