<svg width="131" height="40" viewBox="0 0 131 40" fill="none" xmlns="http://www.w3.org/2000/svg">
<path d="M64.1633 0V8H9.07686C8.4934 8 8.02041 8.47128 8.02041 9.05263V30.9474C8.02041 31.5287 8.4934 32 9.07686 32H64.1633V40H3.54933C2.98856 40 2.45079 39.7779 2.05448 39.3826L0.618053 37.9498C0.222297 37.5551 0 37.0199 0 36.462V3.53803C0 2.98007 0.222297 2.44493 0.618053 2.05019L2.05448 0.617417C2.45079 0.222115 2.98856 0 3.54933 0H64.1633Z" fill="url(#paint0_linear_697_2644)"/>
<path fill-rule="evenodd" clip-rule="evenodd" d="M69.5102 40V3.53803C69.5102 2.98007 69.7325 2.44494 70.1283 2.05019L71.5647 0.617418C71.961 0.222115 72.4988 0 73.0595 0H127.451C128.011 0 128.549 0.221564 128.945 0.616868L130.382 2.05026C130.778 2.44501 131 2.98007 131 3.53803V40H122.98V30.386C122.98 29.8046 122.507 29.3333 121.923 29.3333H78.5871C78.0036 29.3333 77.5306 29.8046 77.5306 30.386V40H69.5102ZM78.5306 21.3333C77.9783 21.3333 77.5306 20.8856 77.5306 20.3333V9C77.5306 8.44772 77.9783 8 78.5306 8H121.98C122.532 8 122.98 8.44771 122.98 9V20.3333C122.98 20.8856 122.532 21.3333 121.98 21.3333H78.5306Z" fill="url(#paint1_linear_697_2644)"/>
<defs>
<linearGradient id="paint0_linear_697_2644" x1="0.528225" y1="39.4737" x2="130.928" y2="1.85443" gradientUnits="userSpaceOnUse">
<stop stop-color="#3873A9"/>
<stop offset="1" stop-color="#224565"/>
</linearGradient>
<linearGradient id="paint1_linear_697_2644" x1="0.528225" y1="39.4737" x2="130.928" y2="1.85443" gradientUnits="userSpaceOnUse">
<stop stop-color="#3873A9"/>
<stop offset="1" stop-color="#224565"/>
</linearGradient>
</defs>
</svg>
